<?xml version="1.0" standalone="no"?>
<!DOCTYPE svg PUBLIC "-//W3C//DTD SVG 20010904//EN"
 "http://www.w3.org/TR/2001/REC-SVG-20010904/DTD/svg10.dtd">
<svg version="1.0" xmlns="http://www.w3.org/2000/svg"
 width="396.000000pt" height="466.000000pt" viewBox="0 0 396.000000 466.000000"
 preserveAspectRatio="xMidYMid meet">

<g transform="translate(0.000000,466.000000) scale(0.100000,-0.100000)"
fill="#000000" stroke="none">
<path d="M0 2330 l0 -2330 1980 0 1980 0 0 2330 0 2330 -1980 0 -1980 0 0
-2330z m1146 1711 c75 -34 134 -126 134 -210 0 -17 -8 -53 -19 -80 l-18 -49
161 -160 161 -161 27 20 c55 41 136 61 227 57 l85 -3 37 92 37 91 -39 38 c-40
39 -69 106 -69 157 0 82 60 174 134 208 53 24 139 24 192 0 73 -33 134 -126
134 -206 0 -80 -61 -173 -134 -206 -23 -10 -63 -19 -91 -19 l-50 0 -38 -97
c-28 -72 -35 -99 -25 -102 7 -2 36 -27 66 -54 66 -64 110 -152 119 -240 l6
-64 76 -17 c71 -15 77 -15 86 0 49 83 117 124 205 124 73 0 121 -22 172 -78
97 -108 58 -292 -76 -353 -53 -24 -139 -24 -192 0 -68 31 -134 126 -134 194 0
11 -17 19 -57 27 -32 6 -67 14 -79 17 -17 4 -26 -5 -48 -52 -15 -30 -50 -78
-77 -104 l-50 -49 53 -104 53 -103 71 0 c60 0 77 -4 112 -28 23 -15 54 -46 69
-69 25 -37 28 -51 28 -123 0 -72 -3 -86 -28 -123 -15 -23 -46 -54 -69 -69 -37
-25 -51 -28 -123 -28 -72 0 -86 3 -123 28 -63 41 -95 97 -100 172 -5 76 8 120
51 171 l33 39 -53 102 -53 101 -38 -10 c-20 -6 -73 -8 -117 -6 -86 5 -163 35
-216 84 l-26 25 -139 -112 c-76 -61 -138 -117 -137 -123 2 -6 8 -34 15 -62 15
-67 -1 -128 -50 -185 -85 -100 -236 -107 -330 -16 -43 41 -58 71 -67 129 -27
181 165 317 330 233 41 -20 52 -22 65 -11 8 7 70 57 137 110 l122 96 -27 58
c-23 49 -27 70 -27 148 0 86 2 96 38 165 l37 73 -159 160 -160 160 -36 -17
c-47 -23 -139 -22 -190 2 -22 10 -56 36 -76 58 -99 110 -60 292 76 354 52 24
138 24 191 0z m702 -2567 c106 -44 155 -157 121 -279 -8 -27 -31 -59 -75 -102
-35 -35 -64 -66 -64 -69 0 -11 101 -134 111 -134 4 0 11 23 15 50 l7 50 80 0
80 0 -6 -60 c-4 -33 -18 -88 -32 -122 -14 -34 -23 -68 -21 -75 3 -7 37 -53 76
-102 38 -49 70 -92 70 -95 0 -3 -47 -6 -104 -6 l-103 0 -27 39 -27 39 -56 -34
c-30 -18 -79 -38 -108 -45 -75 -17 -200 -7 -251 19 -52 27 -107 90 -122 141
-15 47 -15 134 -2 182 13 45 68 110 128 151 26 17 49 32 50 34 2 1 -14 39 -37
84 -34 68 -41 92 -41 139 1 97 40 156 132 196 44 19 159 19 206 -1z m960 1
c61 -26 110 -65 142 -113 45 -68 41 -77 -40 -103 l-70 -23 -35 42 c-23 26 -51
46 -76 53 -106 32 -203 -70 -136 -143 13 -14 85 -55 159 -91 211 -102 268
-169 268 -314 0 -114 -76 -212 -194 -248 -73 -22 -183 -19 -253 7 -71 26 -173
123 -192 181 -7 21 -11 39 -9 41 1 1 36 14 76 29 l72 26 14 -28 c23 -43 91
-99 137 -111 56 -15 112 -4 149 30 25 23 30 36 30 73 0 68 -28 94 -199 182
-167 85 -221 132 -241 207 -14 51 -8 134 13 175 30 57 100 113 167 134 46 14
179 10 218 -6z m-1538 -70 l0 -75 -140 0 -140 0 0 -400 0 -400 -85 0 -85 0 0
400 0 400 -135 0 -135 0 0 75 0 75 360 0 360 0 0 -75z"/>
<path d="M1713 1360 c-12 -5 -29 -20 -39 -35 -21 -33 -13 -74 27 -137 l31 -48
28 20 c84 60 89 171 9 199 -18 6 -32 11 -33 10 -1 0 -11 -4 -23 -9z"/>
<path d="M1625 899 c-54 -50 -71 -95 -55 -144 29 -87 176 -112 255 -42 l25 22
-81 103 c-44 56 -85 102 -90 102 -5 0 -29 -18 -54 -41z"/>
</g>
</svg>
