<?xml version="1.0" standalone="no"?>
<!DOCTYPE svg PUBLIC "-//W3C//DTD SVG 20010904//EN"
 "http://www.w3.org/TR/2001/REC-SVG-20010904/DTD/svg10.dtd">
<svg version="1.0" xmlns="http://www.w3.org/2000/svg"
 width="25.000000pt" height="25.000000pt" viewBox="0 0 25.000000 25.000000"
 preserveAspectRatio="xMidYMid meet">

<g transform="translate(0.000000,25.000000) scale(0.100000,-0.100000)"
fill="#000000" stroke="none">
<path d="M0 203 l0 -48 16 31 c34 70 136 71 165 3 6 -17 9 -46 5 -67 -5 -34
-2 -42 24 -67 17 -16 28 -35 26 -42 -3 -7 -1 -13 4 -13 6 0 10 51 10 125 l0
125 -125 0 -125 0 0 -47z"/>
<path d="M57 192 c-37 -41 -7 -102 50 -102 24 0 53 34 53 62 0 23 -39 58 -65
58 -12 0 -29 -8 -38 -18z"/>
<path d="M0 73 l0 -73 112 0 112 0 -34 35 c-29 30 -38 34 -69 29 -50 -8 -85 8
-104 48 l-17 33 0 -72z"/>
</g>
</svg>
